# xmcd CD database file
#
# Track frame offsets:
#	150
#	21193
#	34020
#	48740
#	65120
#	93055
#	117915
#	128610
#	142790
#	161705
#
# Disc length: 2449 seconds
#
# Revision: 13
# Processed by: cddbd v1.5.2PL0 Copyright (c) Steve Scherf et al.
# Submitted via: CDex 1.81
#
DISCID=81098f0a
DTITLE=Bob Dylan - Bob Dylan's Greatest Hits
DYEAR=1999
DGENRE=Folk/Rock
TTITLE0=Rainy Day Women #12 and 35
TTITLE1=Blowin' in the Wind
TTITLE2=The Times They Are A-Changin'
TTITLE3=It Ain't Me, Babe
TTITLE4=Like a Rolling Stone
TTITLE5=Mr. Tambourine Man
TTITLE6=Subterranean Homesick Blues
TTITLE7=I Want You
TTITLE8=Positively 4th Street
TTITLE9=Just like a Woman
EXTD=YEAR: 1999
EXTT0=
EXTT1=
EXTT2=
EXTT3=
EXTT4=
EXTT5=
EXTT6=
EXTT7=
EXTT8=
EXTT9=
PLAYORDER=
